<svg xmlns="http://www.w3.org/2000/svg" width="640" height="350" viewBox="0 0 640 350" fill="none" role="img" aria-labelledby="title desc"><title id="title">Workspace de gestão documental</title><desc id="desc">Pastas, documentos, OCR, histórico e segurança conectados em um fluxo.</desc><rect x="72" y="44" width="496" height="270" rx="24" fill="#fff" fill-opacity=".96"/><rect x="93" y="68" width="124" height="222" rx="14" fill="#EFF6FF"/><circle cx="115" cy="91" r="7" fill="#22C55E"/><path d="M134 91h58M110 126h83M110 148h65M110 188h83M110 210h70" stroke="#93C5FD" stroke-width="8" stroke-linecap="round"/><rect x="239" y="68" width="307" height="68" rx="14" fill="#F8FAFC" stroke="#E2E8F0"/><path d="M263 91h92M263 112h145" stroke="#2563EB" stroke-width="8" stroke-linecap="round"/><circle cx="510" cy="102" r="18" fill="#DCFCE7"/><path d="m502 102 6 6 11-14" stroke="#15803D" stroke-width="4" stroke-linecap="round" stroke-linejoin="round"/><rect x="239" y="154" width="142" height="136" rx="14" fill="#EFF6FF"/><path d="M268 186h83v70h-83z" fill="#fff" stroke="#60A5FA" stroke-width="3"/><path d="M282 205h54M282 222h42M282 239h48" stroke="#CBD5E1" stroke-width="6" stroke-linecap="round"/><rect x="397" y="154" width="149" height="136" rx="14" fill="#F0FDF4"/><path d="M426 247v-45l30-19 31 19v45" stroke="#22C55E" stroke-width="5" stroke-linejoin="round"/><path d="M443 247v-27h27v27" fill="#fff" stroke="#15803D" stroke-width="4"/><path d="M40 167h48M552 199h48" stroke="#86EFAC" stroke-width="4" stroke-linecap="round"/><circle cx="40" cy="167" r="9" fill="#22C55E"/><circle cx="600" cy="199" r="9" fill="#22C55E"/></svg>
